# xmcd
#
# Track frame offsets: 
#        150
#        11769
#        23286
#        38849
#        62004
#        81113
#        95328
#        113160
#        130643
#        147930
#        161069
#        175529
#
# Disc length: 2517 seconds
#
# Revision: 0
# Processed by: cddbd v1.5.2PL0 Copyright (c) Steve Scherf et al.
# Submitted via: ExactAudioCopy v1.0b3
#
DISCID=8909d30c
DTITLE=Kate Denny - Closer to Home
DYEAR=2012
DGENRE=Country
TTITLE0=William and the Boat
TTITLE1=Getting by
TTITLE2=Beverley
TTITLE3=Billy
TTITLE4=Nellie Follett
TTITLE5=Lapwing to Shore
TTITLE6=The Milk White Dove
TTITLE7=Brittle Boned
TTITLE8=Almost Forever
TTITLE9=Fear
TTITLE10=The Sisters of Jacob's Hall
TTITLE11=Closer to Home
EXTD=
EXTT0=
EXTT1=
EXTT2=
EXTT3=
EXTT4=
EXTT5=
EXTT6=
EXTT7=
EXTT8=
EXTT9=
EXTT10=
EXTT11=
PLAYORDER=
